<?xml version="1.0" encoding="UTF-8" standalone="no"?>
<!-- Generator: Adobe Illustrator 16.0.4, SVG Export Plug-In . SVG Version: 6.00 Build 0)  -->

<svg
   version="1.1"
   id="Layer_1"
   x="0px"
   y="0px"
   width="256"
   height="256"
   viewBox="0 0 256 256"
   enable-background="new 0 0 306 344.35"
   xml:space="preserve"
   xmlns="http://www.w3.org/2000/svg"
   xmlns:svg="http://www.w3.org/2000/svg"><defs
   id="defs6" />





<g
   id="g7"
   transform="translate(14.254935)"><path
     fill="#00599c"
     d="m 224.59595,192.00019 c 1.78498,-3.09194 2.89418,-6.57566 2.89418,-9.70402 V 73.70383 c 0,-3.128362 -1.10771,-6.61134 -2.89343,-9.703272 L 113.74507,128.00037 Z"
     id="path1"
     style="stroke-width:0.743432" /><path
     fill="#004482"
     d="m 123.59554,253.65373 94.04412,-54.2958 c 2.70907,-1.56418 5.17131,-4.26507 6.95629,-7.35774 L 113.74507,128.00037 2.89418,192.00093 c 1.7849798,3.09193 4.2479694,5.79356 6.9562915,7.357 l 94.0441285,54.2958 c 5.41738,3.12836 14.28355,3.12836 19.70094,0 z"
     id="path2"
     style="stroke-width:0.743432" /><path
     fill="#659ad2"
     d="m 224.5967,63.999814 c -1.78573,-3.092676 -4.24872,-5.793564 -6.95704,-7.357744 L 123.59554,2.3462708 c -5.41739,-3.12836106 -14.28356,-3.12836106 -19.70094,0 L 9.8504715,56.64207 C 4.4323404,59.769687 0,67.447851 0,73.70383 v 108.59234 c 0,3.12836 1.1084568,6.61208 2.89418,9.70402 l 110.85089,-63.99982 z"
     id="path3"
     style="stroke-width:0.743432" /><g
     id="g4">
	<path
   fill="#ffffff"
   d="m 113.74507,203.83042 c -41.812838,0 -75.830048,-34.01721 -75.830048,-75.83005 0,-41.812834 34.01721,-75.830043 75.830048,-75.830043 26.98062,0 52.14356,14.519223 65.66807,37.891233 l -32.81731,18.99022 c -6.76895,-11.698641 -19.35748,-18.966431 -32.85076,-18.966431 -20.906793,0 -37.915025,17.008231 -37.915025,37.915021 0,20.90605 17.008232,37.91502 37.915025,37.91502 13.49477,0 26.0833,-7.26779 32.85299,-18.96866 l 32.81731,18.98948 c -13.52451,23.37424 -38.68819,37.89421 -65.6703,37.89421 z"
   id="path4"
   style="stroke-width:0.743432" />
</g><g
     id="g5">
	<polygon
   fill="#ffffff"
   points="243.666,177.841 255,177.841 255,166.508 243.666,166.508 243.666,155.175 232.334,155.175 232.334,166.508 221,166.508 221,177.841 232.334,177.841 232.334,189.175 243.666,189.175 "
   id="polygon4"
   transform="scale(0.74343181)" />
</g><g
     id="g6">
	<polygon
   fill="#ffffff"
   points="286.166,177.841 297.5,177.841 297.5,166.508 286.166,166.508 286.166,155.175 274.834,155.175 274.834,166.508 263.5,166.508 263.5,177.841 274.834,177.841 274.834,189.175 286.166,189.175 "
   id="polygon5"
   transform="scale(0.74343181)" />
</g></g>
</svg>
