<?xml version="1.0" encoding="UTF-8" standalone="no"?>
<svg
   id="Layer_1"
   data-name="Layer 1"
   viewBox="0 0 256 256"
   version="1.1"
   width="256"
   height="256"
   xmlns="http://www.w3.org/2000/svg"
   xmlns:svg="http://www.w3.org/2000/svg"
   xmlns:rdf="http://www.w3.org/1999/02/22-rdf-syntax-ns#"
   xmlns:cc="http://creativecommons.org/ns#"
   xmlns:dc="http://purl.org/dc/elements/1.1/">
  <defs
     id="defs1">
    <style
       id="style1">.cls-1{fill:#e44f26;}.cls-2{fill:#f1672a;}.cls-3{fill:#ebebeb;}.cls-4{fill:#010101;}.cls-5{fill:#fff;}</style>
  </defs>
  <title
     id="title1">HTML5 LOGO</title>
  <g
     id="g8"
     transform="matrix(1.3596771,0,0,1.3596771,-62.354794,-75.951563)">
    <polygon
       class="cls-1"
       points="139.92,244.14 85.44,229.02 73.3,92.86 206.7,92.86 194.54,229 "
       id="polygon1" />
    <polygon
       class="cls-2"
       points="194.53,103.99 140,103.99 140,232.57 184.14,220.33 "
       id="polygon2" />
    <polygon
       class="cls-3"
       points="140,120.69 139.94,120.69 98.13,120.69 98.53,125.17 102.63,171.19 140,171.19 140,154.49 117.9,154.49 116.38,137.39 140,137.39 "
       id="polygon3" />
    <polygon
       class="cls-3"
       points="103.38,179.54 105.72,205.76 139.92,215.26 140,215.24 140,197.86 139.93,197.88 121.33,192.86 120.14,179.54 111.1,179.54 "
       id="polygon4" />
    <path
       class="cls-4"
       d="m 85.71,55.86 h 8.49 v 8.38 h 7.8 v -8.38 h 8.49 V 81.25 H 102 v -8.5 h -7.8 v 8.5 h -8.49 z"
       id="path4" />
    <path
       class="cls-4"
       d="m 121.61,64.28 h -7.47 v -8.42 h 23.43 v 8.42 h -7.47 v 17 h -8.49 z"
       id="path5" />
    <path
       class="cls-4"
       d="m 141.29,55.86 h 8.85 l 5.44,8.92 5.42,-8.92 h 8.85 V 81.25 H 161.4 V 68.66 l -5.84,9 h -0.14 l -5.85,-9 v 12.59 h -8.3 z"
       id="path6" />
    <path
       class="cls-4"
       d="m 174.1,55.86 h 8.49 v 17 h 11.93 v 8.39 H 174.1 Z"
       id="path7" />
    <polygon
       class="cls-5"
       points="158.57,192.85 139.94,197.88 139.94,215.25 174.18,205.76 174.43,202.94 178.35,158.98 178.76,154.49 174.26,154.49 139.94,154.49 139.94,171.19 160.51,171.19 "
       id="polygon7" />
    <polygon
       class="cls-5"
       points="180.23,137.39 180.28,137.39 180.61,133.64 181.38,125.17 181.78,120.69 139.94,120.69 139.94,131.06 139.94,137.35 139.94,137.39 "
       id="polygon8" />
  </g>
  <metadata
     id="metadata8">
    <rdf:RDF>
      <cc:Work
         rdf:about="">
        <dc:title>HTML5 LOGO</dc:title>
      </cc:Work>
    </rdf:RDF>
  </metadata>
</svg>
