<?xml version="1.0" encoding="UTF-8" standalone="no"?>
<svg
   viewBox="0 0 256 256"
   version="1.1"
   id="svg1"
   width="256"
   height="256"
   xmlns="http://www.w3.org/2000/svg"
   xmlns:svg="http://www.w3.org/2000/svg">
  <defs
     id="defs1" />
  <rect
     width="256"
     height="256"
     fill="#f7df1e"
     id="rect1"
     x="0"
     y="0"
     style="stroke-width:0.40635" />
  <path
     d="m 171.96699,200.00102 c 5.15656,8.41955 11.8654,14.60825 23.73079,14.60825 9.96774,0 16.33523,-4.98184 16.33523,-11.86539 0,-8.2489 -6.54221,-11.17055 -17.51365,-15.96953 l -6.01396,-2.58032 c -17.35924,-7.39555 -28.89144,-16.66031 -28.89144,-36.24635 0,-18.0419 13.7468,-31.7765 35.23049,-31.7765 15.29499,0 26.29079,5.32317 34.2146,19.26095 l -18.7327,12.02794 c -4.12444,-7.39556 -8.57397,-10.30909 -15.4819,-10.30909 -7.0461,0 -11.51187,4.46984 -11.51187,10.30909 0,7.21676 4.46984,10.1384 14.79111,14.60825 l 6.01396,2.57625 c 20.43936,8.76496 31.97968,17.70057 31.97968,37.79048 0,21.65841 -17.01384,33.52381 -39.86285,33.52381 -22.34108,0 -36.7746,-10.64634 -43.83696,-24.60038 z m -84.979814,2.08458 c 3.779047,6.70475 7.216762,12.37332 15.481914,12.37332 7.90348,0 12.88939,-3.09232 12.88939,-15.11619 v -81.7981 h 24.05587 v 82.12318 c 0,24.9092 -14.60419,36.24635 -35.92127,36.24635 -19.260952,0 -30.415237,-9.96774 -36.087873,-21.97333 z"
     id="path1"
     style="stroke-width:0.40635" />
</svg>
