<?xml version="1.0" encoding="UTF-8" standalone="no"?>
<svg
   width="256"
   height="256"
   viewBox="0 0 256 256"
   fill="none"
   version="1.1"
   id="svg2"
   xmlns="http://www.w3.org/2000/svg"
   xmlns:svg="http://www.w3.org/2000/svg">
  <defs
     id="defs2" />
  <rect
     x="52.255783"
     y="-14.001895"
     width="209.02313"
     height="209.02313"
     transform="rotate(15)"
     fill="#00a2ff"
     id="rect1"
     style="stroke-width:5.22558" />
  <rect
     x="193.34633"
     y="12.125778"
     width="41.804626"
     height="41.804626"
     transform="rotate(15)"
     fill="#ffffff"
     id="rect2"
     style="stroke-width:5.22558" />
  <path
     d="m 40.726911,179.54303 25.50866,6.83505 -1.555132,5.80457 -32.643664,-8.74709 14.423118,-53.82711 7.135004,1.91204 z m 55.106332,16.74693 c -3.500613,2.41683 -7.826346,2.93521 -12.977199,1.55513 -4.263549,-1.14231 -7.186737,-3.24665 -8.769042,-6.31197 -1.551474,-3.08362 -1.688907,-7.05663 -0.412298,-11.9185 l 6.973534,-26.026 6.839236,1.83262 -6.923891,25.841 c -1.624632,6.06324 0.0277,9.75511 4.956984,11.07561 5.224533,1.40046 9.221576,0.38461 11.990086,-3.04755 l 7.796037,-29.09445 6.83924,1.83261 -10.71818,40.00023 -6.506367,-1.74325 z m 40.715087,15.14947 c -0.18289,-0.89409 -0.12698,-2.38495 0.16827,-4.47205 -4.06446,2.4508 -8.3024,3.08518 -12.71383,1.90264 -3.94323,-1.05662 -6.88732,-3.03397 -8.83123,-5.93208 -1.91309,-2.9164 -2.41056,-6.0878 -1.49243,-9.51369 1.11566,-4.16478 3.5581,-6.97092 7.32731,-8.41788 3.80004,-1.46473 8.57152,-1.42763 14.3139,0.11078 l 6.65425,1.78349 0.84237,-3.14266 c 0.64013,-2.3907 0.43424,-4.47989 -0.61871,-6.26756 -1.04668,-1.81275 -2.96238,-3.09198 -5.74761,-3.83819 -2.43983,-0.65372 -4.65077,-0.58579 -6.63179,0.2038 -1.98153,0.79011 -3.20693,2.05992 -3.67567,3.80997 l -6.87634,-1.84254 c 0.5351,-1.99669 1.75266,-3.73054 3.65268,-5.20259 1.93138,-1.49033 4.24997,-2.45393 6.95577,-2.89131 2.73037,-0.43059 5.55009,-0.25605 8.45812,0.52308 4.60896,1.23481 7.90891,3.36057 9.9009,6.3773 1.99827,2.99216 2.50515,6.52256 1.52065,10.5912 l -4.93295,18.41023 c -0.98397,3.67254 -1.29855,6.71853 -0.94269,9.13849 l -0.15886,0.59154 z m -9.95263,-8.2538 c 2.14405,0.57482 4.32625,0.56489 6.54556,-0.0293 2.21982,-0.59363 3.99861,-1.66226 5.33688,-3.20589 l 2.19892,-8.2073 -5.36039,-1.43599 c -8.37974,-2.24543 -13.22699,-0.91604 -14.5407,3.98869 -0.57481,2.14405 -0.30935,4.01167 0.7969,5.60234 1.10573,1.59067 2.78001,2.68647 5.02283,3.28741 z m 52.19621,15.33342 c -3.50009,2.41683 -7.82583,2.93468 -12.9772,1.55461 -4.26355,-1.14232 -7.18674,-3.24613 -8.76905,-6.31198 -1.55147,-3.08361 -1.6889,-7.0561 -0.41229,-11.91798 l 6.97353,-26.02651 6.83924,1.83261 -6.92389,25.84153 c -1.62464,6.06271 0.0277,9.75459 4.95698,11.07561 5.22505,1.39993 9.22158,0.38408 11.99009,-3.04808 l 7.79604,-29.09445 6.83923,1.83261 -10.71818,40.00076 -6.50637,-1.74378 z"
     fill="#ffffff"
     id="path2"
     style="stroke-width:5.22558" />
</svg>
