<?xml version="1.0" encoding="UTF-8" standalone="no"?>
<!-- Uploaded to: SVG Repo, www.svgrepo.com, Generator: SVG Repo Mixer Tools -->

<svg
   width="256"
   height="256"
   viewBox="0 0 20.48 20.48"
   fill="none"
   version="1.1"
   id="svg5"
   xmlns="http://www.w3.org/2000/svg"
   xmlns:svg="http://www.w3.org/2000/svg">
  <g
     id="g5"
     transform="translate(-16,-15.94656)">
    <path
       d="m 26.1664,16 c -5.19936,0 -4.87488,2.25472 -4.87488,2.25472 l 0.0064,2.336 h 4.96128 v 0.7008 h -6.93312 c 0,0 -3.32608,-0.3776 -3.32608,4.86912 0,5.24544 2.90368,5.05984 2.90368,5.05984 h 1.73312 v -2.43456 c 0,0 -0.09344,-2.90368 2.8576,-2.90368 h 4.92032 c 0,0 2.7648,0.0448 2.7648,-2.672 v -4.49216 c 0,0 0.41984,-2.71808 -5.01312,-2.71808 z m -2.736,1.57056 c 0.49344,0 0.8928,0.39936 0.8928,0.8928 0,0.49344 -0.39936,0.8928 -0.8928,0.8928 a 0.89152,0.89152 0 0 1 -0.8928,-0.8928 c 0,-0.49344 0.39936,-0.8928 0.8928,-0.8928 z"
       fill="url(#a)"
       id="path1"
       style="fill:url(#a);stroke-width:0.64" />
    <path
       d="m 26.3136,36.37312 c 5.19936,0 4.87488,-2.25472 4.87488,-2.25472 l -0.0064,-2.336 H 26.2208 v -0.7008 h 6.93248 c 0,0 3.32672,0.3776 3.32672,-4.86848 0,-5.24608 -2.90368,-5.05984 -2.90368,-5.05984 H 31.8432 v 2.43392 c 0,0 0.09344,2.90368 -2.8576,2.90368 h -4.92032 c 0,0 -2.7648,-0.0448 -2.7648,2.672 v 4.49216 c 0,0 -0.41984,2.71808 5.01312,2.71808 z m 2.736,-1.57056 a 0.89152,0.89152 0 0 1 -0.8928,-0.8928 c 0,-0.4928 0.39936,-0.89216 0.8928,-0.89216 0.49344,0 0.8928,0.39872 0.8928,0.89216 0,0.49408 -0.39936,0.8928 -0.8928,0.8928 z"
       fill="url(#b)"
       id="path2"
       style="fill:url(#b);stroke-width:0.64" />
  </g>
  <defs
     id="defs5">
    <linearGradient
       id="a"
       x1="19.075001"
       y1="18.782"
       x2="34.897999"
       y2="34.658001"
       gradientUnits="userSpaceOnUse"
       gradientTransform="matrix(0.64,0,0,0.64,5.76,5.76)">
      <stop
         stop-color="#387EB8"
         id="stop2" />
      <stop
         offset="1"
         stop-color="#366994"
         id="stop3" />
    </linearGradient>
    <linearGradient
       id="b"
       x1="28.809"
       y1="28.882"
       x2="45.803001"
       y2="45.162998"
       gradientUnits="userSpaceOnUse"
       gradientTransform="matrix(0.64,0,0,0.64,5.76,5.76)">
      <stop
         stop-color="#FFE052"
         id="stop4" />
      <stop
         offset="1"
         stop-color="#FFC331"
         id="stop5" />
    </linearGradient>
  </defs>
</svg>
